<?xml version="1.0" encoding="utf-8"?>
<!-- Generator: Adobe Illustrator 23.0.0, SVG Export Plug-In . SVG Version: 6.00 Build 0)  -->
<svg version="1.1" id="Layer_1" xmlns="http://www.w3.org/2000/svg" xmlns:xlink="http://www.w3.org/1999/xlink" x="0px" y="0px"
	 viewBox="0 0 500 500" style="enable-background:new 0 0 500 500;" xml:space="preserve">
<style type="text/css">
	.st0{fill-rule:evenodd;clip-rule:evenodd;fill:url(#SVGID_1_);}
</style>
<linearGradient id="SVGID_1_" gradientUnits="userSpaceOnUse" x1="93.8487" y1="257" x2="413.4344" y2="257">
	<stop  offset="0" style="stop-color:#F3275A"/>
	<stop  offset="0.2003" style="stop-color:#F54C4F"/>
	<stop  offset="0.7521" style="stop-color:#FCAD32"/>
	<stop  offset="1" style="stop-color:#FED427"/>
</linearGradient>
<path class="st0" d="M239.75,109.41c-56.81,7.02-99.48,55.47-99.48,112.68c0,57.21,42.67,105.65,99.48,112.67
	c4.66,0.58,9.36,0.87,14.06,0.87c4.7,0,9.4-0.29,14.06-0.87c56.8-7.02,99.48-55.47,99.48-112.67c0-57.21-42.67-105.66-99.48-112.67
	c-4.66-0.58-9.36-0.87-14.06-0.87C249.11,108.54,244.41,108.84,239.75,109.41L239.75,109.41z M175.05,374.57
	c-1.93-1.39-3.82-2.84-5.68-4.33c-0.98-0.78-2.42-0.63-3.21,0.35l-25.39,31.53c-0.78,0.98-0.63,2.43,0.35,3.21
	c26.05,20.99,57.3,34.2,90.5,38.3c7.36,0.91,14.78,1.37,22.19,1.37c7.41,0,14.83-0.46,22.19-1.37c33.2-4.1,64.45-17.31,90.5-38.3
	c0.97-0.78,1.13-2.23,0.35-3.21l-25.39-31.53c-0.79-0.98-2.23-1.13-3.21-0.35c-1.85,1.49-3.75,2.94-5.68,4.33
	c-18.34,13.24-39.64,21.58-62.09,24.35c-5.53,0.68-11.1,1.03-16.67,1.03c-5.57,0-11.14-0.35-16.67-1.03
	C214.69,396.15,193.39,387.81,175.05,374.57L175.05,374.57z M266,154.68c32.58,5.82,56.3,34.35,56.3,67.41
	c0,33.42-24.2,62.09-57.19,67.56c-3.74,0.62-7.52,0.93-11.3,0.93c-3.79,0-7.57-0.31-11.3-0.93l-0.95-0.16
	c-32.55-5.84-56.24-34.36-56.24-67.4c0-33.42,24.2-62.09,57.19-67.56c3.73-0.62,7.52-0.93,11.3-0.93c3.78,0,7.57,0.31,11.3,0.93
	L266,154.68L266,154.68z M391.84,164.79c-1.49,0-2.95,0.12-4.35,0.34C381.33,111.32,323.67,69,253.64,69s-127.69,42.32-133.84,96.13
	c-1.41-0.23-2.86-0.34-4.35-0.34c-11.93,0-21.6,7.6-21.6,16.98v52.89c0,9.38,9.67,16.98,21.6,16.98s21.6-7.6,21.6-16.98v-52.89
	c0-0.03,0-0.05,0-0.07v-7.02c0-50.54,52.31-91.66,116.61-91.66s116.61,41.12,116.61,91.66v7.02c0,0.02,0,0.05,0,0.07v52.89
	c0,9.38,9.67,16.98,21.6,16.98c11.93,0,21.6-7.6,21.6-16.98v-52.89C413.43,172.39,403.77,164.79,391.84,164.79z M300.65,335.74
	c-13.34,0-24.16,10.81-24.16,24.16s10.81,24.15,24.16,24.15c13.34,0,24.15-10.81,24.15-24.15S313.99,335.74,300.65,335.74
	L300.65,335.74z"/>
</svg>
