<svg width="52" height="56" viewBox="0 0 52 56" fill="none" xmlns="http://www.w3.org/2000/svg">
<g filter="url(#filter0_d_57_6434)">
<path d="M13.0352 6H13.8435C14.6474 6.13668 15.4223 6.41008 16.1339 6.80834L39.4411 20.2806C40.0015 20.6253 40.521 21.032 40.9903 21.4931C41.2803 21.7582 41.5119 22.0808 41.6703 22.4403C41.8288 22.7998 41.9104 23.1884 41.9104 23.5813C41.9104 23.9742 41.8288 24.3628 41.6703 24.7223C41.5119 25.0819 41.2803 25.4044 40.9903 25.6695C40.5011 26.2474 39.9067 26.7274 39.2388 27.0841L15.9316 40.5564C15.3752 40.9114 14.7592 41.1624 14.1132 41.2974C13.7463 41.4228 13.3582 41.4733 12.9714 41.446C12.5847 41.4186 12.2073 41.3138 11.8618 41.1379C11.5163 40.9621 11.2094 40.7186 10.9597 40.422C10.71 40.1254 10.5228 39.7817 10.4084 39.4112C10.1111 38.662 9.97346 37.859 10.0042 37.0536V10.3785C10.0042 10.3785 10.0042 9.63752 10.0042 9.30071C10.0849 8.34236 10.4885 7.43981 11.1492 6.74098C11.6932 6.31699 12.3481 6.05963 13.0352 6Z" fill="url(#paint0_linear_57_6434)"/>
</g>
<defs>
<filter id="filter0_d_57_6434" x="0" y="0" width="51.9104" height="55.4532" filterUnits="userSpaceOnUse" color-interpolation-filters="sRGB">
<feFlood flood-opacity="0" result="BackgroundImageFix"/>
<feColorMatrix in="SourceAlpha" type="matrix" values="0 0 0 0 0 0 0 0 0 0 0 0 0 0 0 0 0 0 127 0" result="hardAlpha"/>
<feOffset dy="4"/>
<feGaussianBlur stdDeviation="5"/>
<feComposite in2="hardAlpha" operator="out"/>
<feColorMatrix type="matrix" values="0 0 0 0 0 0 0 0 0 0 0 0 0 0 0 0 0 0 0.8 0"/>
<feBlend mode="normal" in2="BackgroundImageFix" result="effect1_dropShadow_57_6434"/>
<feBlend mode="normal" in="SourceGraphic" in2="effect1_dropShadow_57_6434" result="shape"/>
</filter>
<linearGradient id="paint0_linear_57_6434" x1="25.9552" y1="6" x2="25.9552" y2="41.4532" gradientUnits="userSpaceOnUse">
<stop stop-color="#6C0219"/>
<stop offset="1" stop-color="#A64358"/>
</linearGradient>
</defs>
</svg>
