<svg width="32" height="36" viewBox="0 0 32 36" fill="none" xmlns="http://www.w3.org/2000/svg">
<path d="M3.03515 0H3.84346C4.64745 0.136677 5.42226 0.410079 6.13392 0.808339L29.4411 14.2806C30.0015 14.6253 30.521 15.032 30.9903 15.4931C31.2803 15.7582 31.5119 16.0808 31.6703 16.4403C31.8288 16.7998 31.9104 17.1884 31.9104 17.5813C31.9104 17.9742 31.8288 18.3628 31.6703 18.7223C31.5119 19.0819 31.2803 19.4044 30.9903 19.6695C30.5011 20.2474 29.9067 20.7274 29.2388 21.0841L5.93164 34.5564C5.3752 34.9114 4.75924 35.1624 4.11317 35.2974C3.74633 35.4228 3.35816 35.4733 2.97143 35.446C2.5847 35.4186 2.20726 35.3138 1.86176 35.1379C1.51626 34.9621 1.20939 34.7186 0.959713 34.422C0.710042 34.1254 0.522758 33.7817 0.408373 33.4112C0.1111 32.662 -0.0265408 31.859 0.00422115 31.0536V4.37849C0.00422115 4.37849 0.00422115 3.63752 0.00422115 3.30071C0.0848597 2.34236 0.488514 1.43981 1.14925 0.740976C1.69319 0.316994 2.34808 0.0596327 3.03515 0Z" fill="#A7A7A7"/>
</svg>
