<svg id="Layer_1" data-name="Layer 1" xmlns="http://www.w3.org/2000/svg" xmlns:xlink="http://www.w3.org/1999/xlink" viewBox="0 0 5000 3000"><defs><style>.cls-1{fill:#f6514e;}.cls-2{fill:url(#linear-gradient);}.cls-3{fill:url(#linear-gradient-2);}</style><linearGradient id="linear-gradient" x1="2349.14" y1="1533.43" x2="3295.43" y2="1533.43" gradientUnits="userSpaceOnUse"><stop offset="0" stop-color="#8d34bf"/><stop offset="1" stop-color="#d632c0"/></linearGradient><linearGradient id="linear-gradient-2" x1="2349.14" y1="1500" x2="3295.43" y2="1500" gradientUnits="userSpaceOnUse"><stop offset="0" stop-color="#f6514e"/><stop offset="1" stop-color="#b32c4e"/></linearGradient></defs><path class="cls-1" d="M2611.41,1336.93a367.84,367.84,0,0,0-47.7,40.25l-214.57,214.57V1336.93Z"/><path class="cls-1" d="M3295.43,1336.93v254.8l-214.56-214.55a367.84,367.84,0,0,0-47.7-40.25Z"/><path class="cls-2" d="M3295.43,1591.73v29.2a109,109,0,0,1-109,109H2458.14a109,109,0,0,1-109-109v-29.18l214.57-214.57a367.84,367.84,0,0,1,47.7-40.25h421.76a367.84,367.84,0,0,1,47.7,40.25Z"/><path class="cls-3" d="M3295.43,1591.73v29.2a109,109,0,0,1-109,109H2458.14a109,109,0,0,1-109-109v-29.18l214.57-214.57a367.84,367.84,0,0,1,47.7-40.25c126-89.14,295.76-89.14,421.76,0a367.84,367.84,0,0,1,47.7,40.25Z"/></svg>